<?xml version="1.0" encoding="UTF-8" standalone="no"?>
<svg
   xmlns:dc="http://purl.org/dc/elements/1.1/"
   xmlns:cc="http://creativecommons.org/ns#"
   xmlns:rdf="http://www.w3.org/1999/02/22-rdf-syntax-ns#"
   xmlns:svg="http://www.w3.org/2000/svg"
   xmlns="http://www.w3.org/2000/svg"
   xmlns:xlink="http://www.w3.org/1999/xlink"
   xmlns:sodipodi="http://sodipodi.sourceforge.net/DTD/sodipodi-0.dtd"
   xmlns:inkscape="http://www.inkscape.org/namespaces/inkscape"
   width="1671px"
   height="873px"
   viewBox="0 0 1671 873"
   version="1.1"
   id="svg2"
   inkscape:version="0.47 r22583"
   sodipodi:docname="ibmcloudsoftlayerbill.svg">
  <metadata
     id="metadata154">
    <rdf:RDF>
      <cc:Work
         rdf:about="">
        <dc:format>image/svg+xml</dc:format>
        <dc:type
           rdf:resource="http://purl.org/dc/dcmitype/StillImage" />
      </cc:Work>
    </rdf:RDF>
  </metadata>
  <sodipodi:namedview
     pagecolor="#ffffff"
     bordercolor="#666666"
     borderopacity="1"
     objecttolerance="10"
     gridtolerance="10"
     guidetolerance="10"
     inkscape:pageopacity="0"
     inkscape:pageshadow="2"
     inkscape:window-width="1440"
     inkscape:window-height="838"
     id="namedview152"
     showgrid="false"
     inkscape:zoom="0.54066438"
     inkscape:cx="687.1106"
     inkscape:cy="435.81702"
     inkscape:window-x="-8"
     inkscape:window-y="-8"
     inkscape:window-maximized="1"
     inkscape:current-layer="g13" />
  <!-- Generator: Sketch 47.1 (45422) - http://www.bohemiancoding.com/sketch -->
  <title
     id="title4">18</title>
  <desc
     id="desc6">Created with Sketch.</desc>
  <defs
     id="defs8">
    <inkscape:perspective
       sodipodi:type="inkscape:persp3d"
       inkscape:vp_x="0 : 436.5 : 1"
       inkscape:vp_y="0 : 1000 : 0"
       inkscape:vp_z="1671 : 436.5 : 1"
       inkscape:persp3d-origin="835.5 : 291 : 1"
       id="perspective156" />
    <polygon
       id="path-1"
       points="89.9997 0 0 0 0 89.9997 89.9997 89.9997" />
  </defs>
  <g
     id="Page-1"
     stroke="none"
     stroke-width="1"
     fill="none"
     fill-rule="evenodd">
    <g
       id="18">
      <g
         transform="translate(40.000000, 66.000000)"
         id="g13">
        <polyline
           id="Stroke-36"
           stroke="#FF2F2F"
           stroke-width="6"
           points="166 545 418.6837 544 430.5038 504" />
        <polyline
           id="Stroke-38"
           stroke="#5596E6"
           stroke-width="6"
           points="166 253 418.6837 254 430.5038 294" />
        <text
           id="IBM-Cloud-bill"
           font-size="32"
           font-weight="bold"
           x="-24"
           style="font-size:32px;font-weight:bold;fill:#3c3232;font-family:'HelvNeueBoldforIBM, HelvNeue Bold for IBM'"
           y="4">
          <tspan
             x="9.4239998"
             y="311"
             id="tspan18">IBM Cloud <tspan
   style="font-family:SimHei;-inkscape-font-specification:SimHei"
   id="tspan2962">帐单</tspan>
</tspan>
        </text>
        <text
           id="Infrastructure-bill"
           font-size="32"
           font-weight="bold"
           y="4"
           style="font-size:32px;font-weight:bold;fill:#3c3232;font-family:'HelvNeueBoldforIBM, HelvNeue Bold for IBM'"
           x="-12">
          <tspan
             x="-11.048"
             y="601"
             id="tspan21">Infrastructure <tspan
   style="font-family:SimHei;-inkscape-font-specification:SimHei"
   id="tspan2964">帐单</tspan>
</tspan>
        </text>
        <g
           id="g23"
           transform="translate(78.000000, 444.000000)"
           fill-rule="nonzero"
           fill="#FF2F2F">
          <path
             d="M0,0.9994 L0,120.9994 L80,120.9994 L80,32.9994 L48,0.9994 L0,0.9994 L0,0.9994 Z M4,5.0014 L44,5.0014 L44,36.9994 L76,36.9994 L76,117.0014 L4,117.0014 L4,5.0014 L4,5.0014 Z"
             id="Fill-1" />
          <polygon
             id="Fill-2"
             points="16 53 64 53 64 49 16 49" />
          <polygon
             id="Fill-3"
             points="16 61 64 61 64 57 16 57" />
          <polygon
             id="Fill-4"
             points="16 69 40 69 40 65 16 65" />
        </g>
        <text
           id="text29"
           font-size="32"
           font-weight="bold"
           x="2"
           style="font-size:32px;font-weight:bold;fill:#3c3232;font-family:'HelvNeueBoldforIBM, HelvNeue Bold for IBM'">
          <tspan
             x="840.02802"
             y="594"
             id="tspan31">Infrastructure <tspan
   style="font-family:SimHei;-inkscape-font-specification:SimHei"
   id="tspan2978">帐单</tspan>
</tspan>
        </text>
        <g
           id="g33"
           transform="translate(926.000000, 433.000000)"
           fill-rule="nonzero"
           fill="#FF2F2F">
          <path
             d="M0,0.9994 L0,120.9994 L80,120.9994 L80,32.9994 L48,0.9994 L0,0.9994 L0,0.9994 Z M4,5.0014 L44,5.0014 L44,36.9994 L76,36.9994 L76,117.0014 L4,117.0014 L4,5.0014 L4,5.0014 Z"
             id="path35" />
          <polygon
             id="polygon37"
             points="16 53 64 53 64 49 16 49" />
          <polygon
             id="polygon39"
             points="16 61 64 61 64 57 16 57" />
          <polygon
             id="polygon41"
             points="16 69 40 69 40 65 16 65" />
        </g>
        <g
           id="g43"
           transform="translate(78.000000, 156.000000)"
           fill-rule="nonzero"
           fill="#5596E6">
          <path
             d="M0,0.142262857 L0,118.999406 L80,118.999406 L80,31.837501 L48,0.142262857 L0,0.142262857 L0,0.142262857 Z M4,4.10614857 L44,4.10614857 L44,35.7994057 L76,35.7994057 L76,115.039482 L4,115.039482 L4,4.10614857 L4,4.10614857 Z"
             id="path45" />
          <polygon
             id="polygon47"
             points="16 51.647619 64 51.647619 64 47.6857143 16 47.6857143" />
          <polygon
             id="polygon49"
             points="16 59.5714286 64 59.5714286 64 55.6095238 16 55.6095238" />
          <polygon
             id="polygon51"
             points="16 67.4952381 40 67.4952381 40 63.5333333 16 63.5333333" />
        </g>
        <text
           id="text53"
           font-size="32"
           font-weight="bold"
           x="-24"
           style="font-size:32px;font-weight:bold;fill:#3c3232;font-family:'HelvNeueBoldforIBM, HelvNeue Bold for IBM'">
          <tspan
             x="604.92401"
             y="161"
             id="tspan55">IBM Cloud <tspan
   style="font-family:SimHei;-inkscape-font-specification:SimHei"
   id="tspan2972">帐单</tspan>
</tspan>
        </text>
        <g
           id="g57"
           transform="translate(673.000000, 0.000000)"
           fill-rule="nonzero"
           fill="#5596E6">
          <path
             d="M0,0.9994 L0,120.9994 L80,120.9994 L80,32.9994 L48,0.9994 L0,0.9994 L0,0.9994 Z M4,5.0014 L44,5.0014 L44,36.9994 L76,36.9994 L76,117.0014 L4,117.0014 L4,5.0014 L4,5.0014 Z"
             id="path59" />
          <polygon
             id="polygon61"
             points="16 53 64 53 64 49 16 49" />
          <polygon
             id="polygon63"
             points="16 61 64 61 64 57 16 57" />
          <polygon
             id="polygon65"
             points="16 69 40 69 40 65 16 65" />
        </g>
        <g
           id="g67"
           transform="translate(1293.000000, 212.000000)"
           fill-rule="nonzero"
           fill="#5596E6">
          <path
             d="M0,0.9994 L0,120.9994 L80,120.9994 L80,32.9994 L48,0.9994 L0,0.9994 L0,0.9994 Z M4,5.0014 L44,5.0014 L44,36.9994 L76,36.9994 L76,117.0014 L4,117.0014 L4,5.0014 L4,5.0014 Z"
             id="path69" />
          <polygon
             id="polygon71"
             points="16 53 64 53 64 49 16 49" />
          <polygon
             id="polygon73"
             points="16 61 64 61 64 57 16 57" />
          <polygon
             id="polygon75"
             points="16 69 40 69 40 65 16 65" />
        </g>
        <g
           id="g77"
           transform="translate(386.000000, 317.000000)">
          <g
             id="Fill-1-Clipped">
            <g
               id="g80">
              <mask
                 id="mask-2"
                 fill="white">
                <use
                   xlink:href="#path-1"
                   id="use83" />
              </mask>
              <g
                 id="g85" />
              <path
                 d="M79.6062,31.6062 L70.6062,40.6062 C67.7727,43.4397 64.0062,44.9997 59.9997,44.9997 C58.0722,44.9997 56.1972,44.6517 54.4647,44.0202 L67.2432,31.2432 L58.7577,22.7577 L45.9792,35.5347 C45.3477,33.8037 44.9997,31.9287 44.9997,29.9997 C44.9997,25.9932 46.5597,22.2267 49.3932,19.3932 L58.3932,10.3932 C61.2267,7.5597 64.9932,5.9997 68.9997,5.9997 C73.0062,5.9997 76.7727,7.5597 79.6062,10.3932 C82.4397,13.2267 83.9997,16.9932 83.9997,20.9997 C83.9997,25.0062 82.4397,28.7727 79.6062,31.6062 M44.9997,59.9997 C44.9997,64.0062 43.4397,67.7727 40.6062,70.6062 L31.6062,79.6062 C28.7727,82.4397 25.0062,83.9997 20.9997,83.9997 C16.9932,83.9997 13.2267,82.4397 10.3932,79.6062 C7.5597,76.7727 5.9997,73.0062 5.9997,68.9997 C5.9997,64.9932 7.5597,61.2267 10.3932,58.3932 L19.3932,49.3932 C22.2267,46.5597 25.9932,44.9997 29.9997,44.9997 C31.9287,44.9997 33.8037,45.3477 35.5347,45.9792 L22.7577,58.7577 L31.2432,67.2432 L44.0202,54.4647 C44.6517,56.1972 44.9997,58.0722 44.9997,59.9997 M83.8497,6.1512 C80.0487,2.3517 74.7987,-0.0003 68.9997,-0.0003 C63.2007,-0.0003 57.9507,2.3517 54.1512,6.1512 L45.1512,15.1512 C41.3517,18.9507 38.9997,24.2007 38.9997,29.9997 C38.9997,33.6162 39.8577,37.0767 41.4222,40.0917 L40.0917,41.4222 C37.0782,39.8577 33.6162,38.9997 29.9997,38.9997 C24.2007,38.9997 18.9507,41.3517 15.1512,45.1512 L6.1512,54.1512 C2.3517,57.9507 -0.0003,63.2007 -0.0003,68.9997 C-0.0003,74.7987 2.3517,80.0487 6.1512,83.8497 C9.9507,87.6492 15.2007,89.9997 20.9997,89.9997 C26.7987,89.9997 32.0487,87.6492 35.8497,83.8497 L44.8497,74.8497 C48.6492,71.0487 50.9997,65.7987 50.9997,59.9997 C50.9997,56.3832 50.1432,52.9227 48.5772,49.9077 L49.9077,48.5772 C52.9227,50.1432 56.3832,50.9997 59.9997,50.9997 C65.7987,50.9997 71.0487,48.6492 74.8497,44.8497 L83.8497,35.8497 C87.6492,32.0487 89.9997,26.7987 89.9997,20.9997 C89.9997,15.2007 87.6492,9.9507 83.8497,6.1512"
                 id="path87"
                 fill="#000000"
                 fill-rule="nonzero"
                 mask="url(#mask-2)" />
            </g>
          </g>
        </g>
        <text
           id="Link-IBM-Cloud-and"
           font-size="32"
           font-weight="bold"
           x="4"
           style="font-size:32px;font-weight:bold;fill:#3c3232;font-family:'HelvNeueBoldforIBM, HelvNeue Bold for IBM'">
          <tspan
             x="307.95599"
             y="441"
             id="tspan90"><tspan
   style="font-family:SimHei;-inkscape-font-specification:SimHei"
   id="tspan2966">将</tspan>

 IBM Cloud <tspan
   style="font-family:SimHei;-inkscape-font-specification:SimHei"
   id="tspan2968">帐户和</tspan>
</tspan>
        </text>
        <text
           id="Infrastructure-accou"
           font-size="32"
           font-weight="bold"
           x="-36"
           style="font-size:32px;font-weight:bold;fill:#3c3232;font-family:'HelvNeueBoldforIBM, HelvNeue Bold for IBM'">
          <tspan
             x="248.91599"
             y="480"
             id="tspan93">Infrastructure <tspan
   style="font-family:SimHei;-inkscape-font-specification:SimHei"
   id="tspan2970">帐户链接在一起</tspan>
</tspan>
        </text>
        <text
           id="For-the-next-billing-cycle,-you"
           font-size="30"
           font-weight="normal"
           style="font-size:30px;font-weight:normal;fill:#3c3232;font-family:'HelveticaNeue, Helvetica Neue'">
          <tspan
             x="1134.285"
             y="433"
             id="tspan96"
             style="font-family:SimHei;-inkscape-font-specification:SimHei">对于下一个记帐周期，您将收到</tspan>
        </text>
        <text
           id="will-receive-a-singl"
           fill="#3C3232"
           font-family="HelveticaNeue, Helvetica Neue"
           font-size="30"
           font-weight="normal">
          <tspan
             x="1140.395"
             y="465"
             id="tspan99"
             style="-inkscape-font-specification:SimHei;font-family:SimHei" />
        </text>
        <text
           id="bill-that-includes-y"
           font-size="30"
           font-weight="normal"
           style="font-size:30px;font-weight:normal;fill:#3c3232;font-family:'HelveticaNeue, Helvetica Neue'"
           x="10"
           y="-32">
          <tspan
             x="1129"
             y="465"
             id="tspan102"><tspan
   style="font-family:SimHei;-inkscape-font-specification:SimHei"
   id="tspan2990">包含</tspan>
 Infrastructure <tspan
   style="font-family:SimHei;-inkscape-font-specification:SimHei"
   id="tspan2982">和</tspan>
 IBM Cloud</tspan>
        </text>
        <text
           id="and-IBM-Cloud-charge"
           font-size="30"
           font-weight="normal"
           y="-30"
           style="font-size:30px;font-weight:normal;fill:#3c3232;font-family:'HelveticaNeue, Helvetica Neue'"
           x="-24">
          <tspan
             x="1165.005"
             y="499"
             id="tspan105"><tspan
   style="font-family:SimHei;-inkscape-font-specification:SimHei"
   id="tspan2984">费用的一份</tspan>
 IBM Cloud <tspan
   style="font-family:SimHei;-inkscape-font-specification:SimHei"
   id="tspan2986">帐单</tspan>
</tspan>
        </text>
        <text
           id="text107"
           font-size="32"
           font-weight="bold"
           x="-20"
           style="font-size:32px;font-weight:bold;fill:#3c3232;font-family:'HelvNeueBoldforIBM, HelvNeue Bold for IBM'">
          <tspan
             x="1226.864"
             y="377"
             id="tspan109">IBM Cloud <tspan
   style="font-family:SimHei;-inkscape-font-specification:SimHei"
   id="tspan2980">帐单</tspan>
</tspan>
        </text>
        <g
           id="Group"
           transform="translate(842.500000, 368.500000) scale(-1, 1) rotate(-180.000000) translate(-842.500000, -368.500000) translate(477.000000, 365.000000)"
           stroke="#AF6EE8"
           stroke-width="6">
          <path
             d="M0.26034483,3.5 L730,3.5"
             id="Line" />
          <path
             d="M730,0.5 L730,6.5"
             id="Line-decoration-1" />
        </g>
        <text
           id="After-you-link-accounts,-you"
           font-size="30"
           font-weight="normal"
           style="font-size:30px;font-weight:normal;fill:#1a1314;font-family:'HelveticaNeue, Helvetica Neue'"
           y="30"
           x="36">
          <tspan
             x="535.04004"
             y="233"
             id="tspan115"
             style="font-family:SimHei;-inkscape-font-specification:SimHei">链接帐户后，您将收到针对</tspan>
        </text>
        <text
           id="will-receive-a-separate-bill-for-your"
           fill="#1A1314"
           font-family="HelveticaNeue, Helvetica Neue"
           font-size="30"
           font-weight="normal">
          <tspan
             x="458"
             y="235"
             id="tspan118"
             style="-inkscape-font-specification:SimHei;font-family:SimHei" />
        </text>
        <text
           id="IBM-Cloud-usage-for"
           font-size="30"
           font-weight="normal"
           style="font-size:30px;font-weight:normal;fill:#1a1314;font-family:'HelveticaNeue, Helvetica Neue'"
           x="34">
          <tspan
             x="521.38501"
             y="267"
             id="tspan121"><tspan
   style="font-family:SimHei;-inkscape-font-specification:SimHei"
   id="tspan2974">您当月记帐周期的</tspan>

 IBM Cloud <tspan
   style="font-family:SimHei;-inkscape-font-specification:SimHei"
   id="tspan2976" />
</tspan>
        </text>
        <text
           id="month’s-billing-cycle."
           font-size="30"
           font-weight="normal"
           style="font-size:30px;font-weight:normal;fill:#1a1314;font-family:'HelveticaNeue, Helvetica Neue'"
           x="46">
          <tspan
             x="590.03998"
             y="299"
             id="tspan124"
             style="font-family:SimHei;-inkscape-font-specification:SimHei">使用量的单独帐单。</tspan>
        </text>
        <text
           id="You-might-receive-a-separate-bill"
           font-size="30"
           font-weight="normal"
           style="font-size:30px;font-weight:normal;fill:#3c3232;font-family:'HelveticaNeue, Helvetica Neue'"
           x="-12"
           y="-2">
          <tspan
             x="730.77002"
             y="637"
             id="tspan127"
             style="font-family:SimHei;-inkscape-font-specification:SimHei">您还可能会收到针对当前记帐周期的</tspan>
        </text>
        <text
           id="for-Infrastructure-u"
           font-size="30"
           font-weight="normal"
           style="font-size:30px;font-weight:normal;fill:#3c3232;font-family:'HelveticaNeue, Helvetica Neue'"
           x="32"
           y="2">
          <tspan
             x="760.92999"
             y="673"
             id="tspan130">Infrastructure <tspan
   style="font-family:SimHei;-inkscape-font-specification:SimHei"
   id="tspan2992">使用量的单独帐单，</tspan>
</tspan>
        </text>
        <text
           id="billing-cycle,-depending-on-when-you"
           fill="#3C3232"
           font-family="HelveticaNeue, Helvetica Neue"
           font-size="30"
           font-weight="normal">
          <tspan
             x="711"
             y="703"
             id="tspan133"
             style="-inkscape-font-specification:SimHei;font-family:SimHei" />
        </text>
        <text
           id="linked-your-accounts."
           font-size="30"
           font-weight="normal"
           style="font-size:30px;font-weight:normal;fill:#3c3232;font-family:'HelveticaNeue, Helvetica Neue'"
           x="-36"
           y="-26">
          <tspan
             x="781.72998"
             y="709"
             id="tspan136"
             style="font-family:SimHei;-inkscape-font-specification:SimHei">具体取决于您何时链接的帐户。</tspan>
        </text>
        <g
           id="Group-2"
           transform="translate(600.000000, 325.000000)">
          <path
             d="M2.62030075,0 L220.515038,0"
             id="path139"
             stroke="#5596E6"
             stroke-dasharray="15,5"
             transform="translate(111.567669, 0.500000) scale(-1, 1) rotate(-180.000000) translate(-111.567669, -0.500000) " />
          <path
             d="M0,0 L0,41"
             id="path141"
             stroke="#AF6EE8"
             transform="translate(0.500000, 20.500000) scale(-1, 1) rotate(-180.000000) translate(-0.500000, -20.500000) " />
          <path
             d="M226,0 L226,41"
             id="Line-Copy"
             stroke="#AF6EE8"
             transform="translate(226.500000, 20.500000) scale(-1, 1) rotate(-180.000000) translate(-226.500000, -20.500000) " />
        </g>
        <g
           id="g144"
           transform="translate(965.500000, 388.500000) rotate(180.000000) translate(-965.500000, -388.500000) translate(863.000000, 368.000000)">
          <path
             d="M2.05827068,0 L198.163534,0"
             id="path146"
             stroke="#FF2F2F"
             stroke-dasharray="15,5"
             transform="translate(100.110902, 0.500000) scale(-1, 1) rotate(-180.000000) translate(-100.110902, -0.500000) " />
          <path
             d="M0,0.7741935 L0,41"
             id="path148"
             stroke="#AF6EE8"
             transform="translate(0.500000, 20.887097) scale(-1, 1) rotate(-180.000000) translate(-0.500000, -20.887097) " />
          <path
             d="M204,0.7741935 L204,41"
             id="path150"
             stroke="#AF6EE8"
             transform="translate(204.500000, 20.887097) scale(-1, 1) rotate(-180.000000) translate(-204.500000, -20.887097) " />
        </g>
      </g>
    </g>
  </g>
</svg>
