<?xml version="1.0" encoding="UTF-8" standalone="no"?>
<svg
   xmlns:dc="http://purl.org/dc/elements/1.1/"
   xmlns:cc="http://creativecommons.org/ns#"
   xmlns:rdf="http://www.w3.org/1999/02/22-rdf-syntax-ns#"
   xmlns:svg="http://www.w3.org/2000/svg"
   xmlns="http://www.w3.org/2000/svg"
   xmlns:xlink="http://www.w3.org/1999/xlink"
   xmlns:sodipodi="http://sodipodi.sourceforge.net/DTD/sodipodi-0.dtd"
   xmlns:inkscape="http://www.inkscape.org/namespaces/inkscape"
   width="1671px"
   height="873px"
   viewBox="0 0 1671 873"
   version="1.1"
   id="svg2"
   inkscape:version="0.48.5 r"
   sodipodi:docname="BluemixSoftLayerBill.svg"
   inkscape:export-filename="E:\Kumihan_work\BM120ABD042#021_アート変換のみ\納品用\BM120ABD042021_Art\admin\images\BluemixSoftLayerBill.png"
   inkscape:export-xdpi="51.560001"
   inkscape:export-ydpi="51.560001">
  <metadata
     id="metadata154">
    <rdf:RDF>
      <cc:Work
         rdf:about="">
        <dc:format>image/svg+xml</dc:format>
        <dc:type
           rdf:resource="http://purl.org/dc/dcmitype/StillImage" />
        <dc:title>18</dc:title>
      </cc:Work>
    </rdf:RDF>
  </metadata>
  <sodipodi:namedview
     pagecolor="#ffffff"
     bordercolor="#666666"
     borderopacity="1"
     objecttolerance="10"
     gridtolerance="10"
     guidetolerance="10"
     inkscape:pageopacity="0"
     inkscape:pageshadow="2"
     inkscape:window-width="1680"
     inkscape:window-height="987"
     id="namedview152"
     showgrid="false"
     inkscape:zoom="0.54066438"
     inkscape:cx="888.14742"
     inkscape:cy="179.1779"
     inkscape:window-x="-4"
     inkscape:window-y="-4"
     inkscape:window-maximized="1"
     inkscape:current-layer="svg2" />
  <!-- Generator: Sketch 47.1 (45422) - http://www.bohemiancoding.com/sketch -->
  <title
     id="title4">18</title>
  <desc
     id="desc6">Created with Sketch.</desc>
  <defs
     id="defs8">
    <polygon
       id="path-1"
       points="89.9997 0 0 0 0 89.9997 89.9997 89.9997" />
  </defs>
  <polyline
     style="fill:none;stroke:#ff2f2f;stroke-width:6"
     points="166 545 418.6837 544 430.5038 504"
     id="Stroke-36"
     transform="translate(40,66)" />
  <polyline
     style="fill:none;stroke:#5596e6;stroke-width:6"
     points="166 253 418.6837 254 430.5038 294"
     id="Stroke-38"
     transform="translate(40,66)" />
  <g
     style="fill:#ff2f2f;fill-rule:nonzero;stroke:none"
     transform="translate(118,510)"
     id="g23">
    <path
       inkscape:connector-curvature="0"
       id="Fill-1"
       d="m 0,0.9994 0,120 80,0 0,-88 -32,-32 -48,0 0,0 z m 4,4.002 40,0 0,31.998 32,0 0,80.002 -72,0 0,-112 0,0 z" />
    <polygon
       points="64,49 16,49 16,53 64,53 "
       id="Fill-2" />
    <polygon
       points="64,57 16,57 16,61 64,61 "
       id="Fill-3" />
    <polygon
       points="40,65 16,65 16,69 40,69 "
       id="Fill-4" />
  </g>
  <g
     style="fill:#ff2f2f;fill-rule:nonzero;stroke:none"
     transform="translate(966,499)"
     id="g33">
    <path
       inkscape:connector-curvature="0"
       id="path35"
       d="m 0,0.9994 0,120 80,0 0,-88 -32,-32 -48,0 0,0 z m 4,4.002 40,0 0,31.998 32,0 0,80.002 -72,0 0,-112 0,0 z" />
    <polygon
       points="64,49 16,49 16,53 64,53 "
       id="polygon37" />
    <polygon
       points="64,57 16,57 16,61 64,61 "
       id="polygon39" />
    <polygon
       points="40,65 16,65 16,69 40,69 "
       id="polygon41" />
  </g>
  <g
     style="fill:#5596e6;fill-rule:nonzero;stroke:none"
     transform="translate(118,222)"
     id="g43">
    <path
       inkscape:connector-curvature="0"
       id="path45"
       d="M 0,0.14226286 0,118.99941 l 80,0 0,-87.161909 -32,-31.69523814 -48,0 0,0 z m 4,3.96388574 40,0 0,31.6932574 32,0 0,79.240074 -72,0 0,-110.9333314 0,0 z" />
    <polygon
       points="64,47.685714 16,47.685714 16,51.647619 64,51.647619 "
       id="polygon47" />
    <polygon
       points="64,55.609524 16,55.609524 16,59.571429 64,59.571429 "
       id="polygon49" />
    <polygon
       points="40,63.533333 16,63.533333 16,67.495238 40,67.495238 "
       id="polygon51" />
  </g>
  <g
     style="fill:#5596e6;fill-rule:nonzero;stroke:none"
     transform="translate(713,66)"
     id="g57">
    <path
       inkscape:connector-curvature="0"
       id="path59"
       d="m 0,0.9994 0,120 80,0 0,-88 -32,-32 -48,0 0,0 z m 4,4.002 40,0 0,31.998 32,0 0,80.002 -72,0 0,-112 0,0 z" />
    <polygon
       points="64,49 16,49 16,53 64,53 "
       id="polygon61" />
    <polygon
       points="64,57 16,57 16,61 64,61 "
       id="polygon63" />
    <polygon
       points="40,65 16,65 16,69 40,69 "
       id="polygon65" />
  </g>
  <g
     style="fill:#5596e6;fill-rule:nonzero;stroke:none"
     transform="translate(1333,278)"
     id="g67">
    <path
       inkscape:connector-curvature="0"
       id="path69"
       d="m 0,0.9994 0,120 80,0 0,-88 -32,-32 -48,0 0,0 z m 4,4.002 40,0 0,31.998 32,0 0,80.002 -72,0 0,-112 0,0 z" />
    <polygon
       points="64,49 16,49 16,53 64,53 "
       id="polygon71" />
    <polygon
       points="64,57 16,57 16,61 64,61 "
       id="polygon73" />
    <polygon
       points="40,65 16,65 16,69 40,69 "
       id="polygon75" />
  </g>
  <g
     style="fill:none;stroke:none"
     transform="translate(426,383)"
     id="g77">
    <g
       id="Fill-1-Clipped">
      <g
         id="g80">
        <mask
           fill="white"
           id="mask-2">
          <use
             height="873"
             width="1671"
             y="0"
             x="0"
             id="use83"
             xlink:href="#path-1" />
        </mask>
        <g
           id="g85" />
        <path
           style="fill:#000000;fill-rule:nonzero"
           inkscape:connector-curvature="0"
           mask="url(#mask-2)"
           id="path87"
           d="m 79.6062,31.6062 -9,9 c -2.8335,2.8335 -6.6,4.3935 -10.6065,4.3935 -1.9275,0 -3.8025,-0.348 -5.535,-0.9795 l 12.7785,-12.777 -8.4855,-8.4855 -12.7785,12.777 c -0.6315,-1.731 -0.9795,-3.606 -0.9795,-5.535 0,-4.0065 1.56,-7.773 4.3935,-10.6065 l 9,-9 c 2.8335,-2.8335 6.6,-4.3935 10.6065,-4.3935 4.0065,0 7.773,1.56 10.6065,4.3935 2.8335,2.8335 4.3935,6.6 4.3935,10.6065 0,4.0065 -1.56,7.773 -4.3935,10.6065 M 44.9997,59.9997 c 0,4.0065 -1.56,7.773 -4.3935,10.6065 l -9,9 c -2.8335,2.8335 -6.6,4.3935 -10.6065,4.3935 -4.0065,0 -7.773,-1.56 -10.6065,-4.3935 -2.8335,-2.8335 -4.3935,-6.6 -4.3935,-10.6065 0,-4.0065 1.56,-7.773 4.3935,-10.6065 l 9,-9 c 2.8335,-2.8335 6.6,-4.3935 10.6065,-4.3935 1.929,0 3.804,0.348 5.535,0.9795 l -12.777,12.7785 8.4855,8.4855 12.777,-12.7785 c 0.6315,1.7325 0.9795,3.6075 0.9795,5.535 m 38.85,-53.8485 c -3.801,-3.7995 -9.051,-6.1515 -14.85,-6.1515 -5.799,0 -11.049,2.352 -14.8485,6.1515 l -9,9 c -3.7995,3.7995 -6.1515,9.0495 -6.1515,14.8485 0,3.6165 0.858,7.077 2.4225,10.092 l -1.3305,1.3305 c -3.0135,-1.5645 -6.4755,-2.4225 -10.092,-2.4225 -5.799,0 -11.049,2.352 -14.8485,6.1515 l -9,9 C 2.3517,57.9507 -3e-4,63.2007 -3e-4,68.9997 c 0,5.799 2.352,11.049 6.1515,14.85 3.7995,3.7995 9.0495,6.15 14.8485,6.15 5.799,0 11.049,-2.3505 14.85,-6.15 l 9,-9 c 3.7995,-3.801 6.15,-9.051 6.15,-14.85 0,-3.6165 -0.8565,-7.077 -2.4225,-10.092 l 1.3305,-1.3305 c 3.015,1.566 6.4755,2.4225 10.092,2.4225 5.799,0 11.049,-2.3505 14.85,-6.15 l 9,-9 c 3.7995,-3.801 6.15,-9.051 6.15,-14.85 0,-5.799 -2.3505,-11.049 -6.15,-14.8485" />
      </g>
    </g>
  </g>
  <text
     style="font-size:30px;font-weight:normal;fill:#3c3232;stroke:none;font-family:'HelveticaNeue, Helvetica Neue'"
     font-weight="normal"
     font-size="30"
     id="For-the-next-billing-cycle,-you"
     x="40"
     y="66">
    <tspan
       id="tspan96"
       y="499"
       x="1174.285" />
  </text>
  <text
     style="font-size:30px;font-weight:normal;fill:#3c3232;stroke:none;font-family:'HelveticaNeue, Helvetica Neue'"
     font-weight="normal"
     font-size="30"
     id="will-receive-a-singl"
     x="40"
     y="66">
    <tspan
       id="tspan99"
       y="531"
       x="1180.395" />
  </text>
  <text
     style="font-size:30px;font-weight:normal;fill:#3c3232;stroke:none;font-family:'HelveticaNeue, Helvetica Neue'"
     font-weight="normal"
     font-size="30"
     id="bill-that-includes-y"
     x="40"
     y="66">
    <tspan
       id="tspan102"
       y="563"
       x="1159" />
  </text>
  <text
     style="font-size:30px;font-weight:normal;fill:#3c3232;stroke:none;font-family:'HelveticaNeue, Helvetica Neue'"
     font-weight="normal"
     font-size="30"
     id="and-IBM-Cloud-charge"
     x="40"
     y="66">
    <tspan
       id="tspan105"
       y="595"
       x="1229.005" />
  </text>
  <g
     style="fill:none;stroke:#af6ee8;stroke-width:6"
     transform="matrix(1,0,0,-1,517,438)"
     id="Group">
    <path
       inkscape:connector-curvature="0"
       id="Line"
       d="M 0.26034483,3.5 730,3.5" />
    <path
       inkscape:connector-curvature="0"
       id="Line-decoration-1"
       d="m 730,0.5 0,6" />
  </g>
  <text
     style="font-size:30px;font-weight:normal;fill:#1a1314;stroke:none;font-family:'HelveticaNeue, Helvetica Neue'"
     font-weight="normal"
     font-size="30"
     id="After-you-link-accounts,-you"
     x="40"
     y="66">
    <tspan
       id="tspan115"
       y="269"
       x="539.04004" />
  </text>
  <text
     style="font-size:30px;font-weight:normal;fill:#1a1314;stroke:none;font-family:'HelveticaNeue, Helvetica Neue'"
     font-weight="normal"
     font-size="30"
     id="will-receive-a-separate-bill-for-your"
     x="40"
     y="66">
    <tspan
       id="tspan118"
       y="301"
       x="498" />
  </text>
  <text
     style="font-size:30px;font-weight:normal;fill:#1a1314;stroke:none;font-family:'HelveticaNeue, Helvetica Neue'"
     font-weight="normal"
     font-size="30"
     id="IBM-Cloud-usage-for"
     x="40"
     y="66">
    <tspan
       id="tspan121"
       y="333"
       x="527.38501" />
  </text>
  <text
     style="font-size:30px;font-weight:normal;fill:#1a1314;stroke:none;font-family:'HelveticaNeue, Helvetica Neue'"
     font-weight="normal"
     font-size="30"
     id="month’s-billing-cycle."
     x="40"
     y="66">
    <tspan
       id="tspan124"
       y="365"
       x="584.03998" />
  </text>
  <text
     style="font-size:30px;font-weight:normal;fill:#3c3232;stroke:none;font-family:'HelveticaNeue, Helvetica Neue'"
     font-weight="normal"
     font-size="30"
     id="You-might-receive-a-separate-bill"
     x="40"
     y="66">
    <tspan
       id="tspan127"
       y="705"
       x="782.77002" />
  </text>
  <text
     style="font-size:30px;font-weight:normal;fill:#3c3232;stroke:none;font-family:'HelveticaNeue, Helvetica Neue'"
     font-weight="normal"
     font-size="30"
     id="for-Infrastructure-u"
     x="40"
     y="66">
    <tspan
       id="tspan130"
       y="737"
       x="768.92999" />
  </text>
  <text
     style="font-size:30px;font-weight:normal;fill:#3c3232;stroke:none;font-family:'HelveticaNeue, Helvetica Neue'"
     font-weight="normal"
     font-size="30"
     id="billing-cycle,-depending-on-when-you"
     x="40"
     y="66">
    <tspan
       id="tspan133"
       y="769"
       x="751" />
  </text>
  <text
     style="font-size:30px;font-weight:normal;fill:#3c3232;stroke:none;font-family:'HelveticaNeue, Helvetica Neue'"
     font-weight="normal"
     font-size="30"
     id="linked-your-accounts."
     x="40"
     y="66">
    <tspan
       id="tspan136"
       y="801"
       x="857.72998" />
  </text>
  <g
     style="fill:none;stroke:none"
     transform="translate(640,391)"
     id="Group-2">
    <path
       style="stroke:#5596e6;stroke-dasharray:15, 5"
       inkscape:connector-curvature="0"
       transform="matrix(1,0,0,-1,0,1)"
       id="path139"
       d="M 2.6203008,0 220.51504,0" />
    <path
       style="stroke:#af6ee8"
       inkscape:connector-curvature="0"
       transform="matrix(1,0,0,-1,0,41)"
       id="path141"
       d="M 0,0 0,41" />
    <path
       style="stroke:#af6ee8"
       inkscape:connector-curvature="0"
       transform="matrix(1,0,0,-1,0,41)"
       id="Line-Copy"
       d="m 226,0 0,41" />
  </g>
  <g
     style="fill:none;stroke:none"
     transform="matrix(-1,0,0,-1,1108,475)"
     id="g144">
    <path
       style="stroke:#ff2f2f;stroke-dasharray:15, 5"
       inkscape:connector-curvature="0"
       transform="matrix(1,0,0,-1,0,1)"
       id="path146"
       d="M 2.0582707,0 198.16353,0" />
    <path
       style="stroke:#af6ee8"
       inkscape:connector-curvature="0"
       transform="matrix(1,0,0,-1,0,41.774194)"
       id="path148"
       d="M 0,0.7741935 0,41" />
    <path
       style="stroke:#af6ee8"
       inkscape:connector-curvature="0"
       transform="matrix(1,0,0,-1,0,41.774194)"
       id="path150"
       d="M 204,0.7741935 204,41" />
  </g>
  <text
     xml:space="preserve"
     style="font-size:13.75px;font-style:normal;font-variant:normal;font-weight:normal;font-stretch:normal;text-align:center;line-height:125%;letter-spacing:0px;word-spacing:0px;writing-mode:lr-tb;text-anchor:middle;fill:#000000;fill-opacity:1;stroke:none;font-family:MS UI Gothic;-inkscape-font-specification:MS UI Gothic"
     x="158.67374"
     y="385.35803"
     id="text5483"
     sodipodi:linespacing="125%"><tspan
       sodipodi:role="line"
       id="tspan5485"
       x="158.67374"
       y="385.35803"
       style="font-size:32px;font-weight:bold;-inkscape-font-specification:Arial Bold"><tspan
   style="font-style:normal;font-variant:normal;font-weight:bold;font-stretch:normal;font-family:Arial;-inkscape-font-specification:Arial Bold"
   id="tspan5487">IBM Cloud </tspan>請求</tspan></text>
  <text
     xml:space="preserve"
     style="font-size:13.75px;font-style:normal;font-variant:normal;font-weight:normal;font-stretch:normal;text-align:center;line-height:125%;letter-spacing:0px;word-spacing:0px;writing-mode:lr-tb;text-anchor:middle;fill:#000000;fill-opacity:1;stroke:none;font-family:MS UI Gothic;-inkscape-font-specification:MS UI Gothic"
     x="156.91312"
     y="674.94489"
     id="text5747"
     sodipodi:linespacing="125%"><tspan
       sodipodi:role="line"
       id="tspan5749"
       x="156.91312"
       y="674.94489"
       style="font-size:32px;font-weight:bold;-inkscape-font-specification:Arial Bold"><tspan
         style="font-style:normal;font-variant:normal;font-weight:bold;font-stretch:normal;font-family:Arial;-inkscape-font-specification:Arial Bold"
         id="tspan5751">Infrastructure </tspan><tspan
         style="font-style:normal;font-variant:normal;font-weight:bold;font-stretch:normal;font-family:MS Gothic;-inkscape-font-specification:Arial Bold"
         id="tspan5753">請求</tspan></tspan></text>
  <text
     xml:space="preserve"
     style="font-size:13.75px;font-style:normal;font-variant:normal;font-weight:normal;font-stretch:normal;text-align:center;line-height:125%;letter-spacing:0px;word-spacing:0px;writing-mode:lr-tb;text-anchor:middle;fill:#000000;fill-opacity:1;stroke:none;font-family:MS UI Gothic;-inkscape-font-specification:MS UI Gothic"
     x="751.89551"
     y="227.63664"
     id="text5483-6"
     sodipodi:linespacing="125%"><tspan
       sodipodi:role="line"
       id="tspan5485-3"
       x="751.89551"
       y="227.63664"
       style="font-size:32px;font-weight:bold;-inkscape-font-specification:Arial Bold"><tspan
   style="font-style:normal;font-variant:normal;font-weight:bold;font-stretch:normal;font-family:Arial;-inkscape-font-specification:Arial Bold"
   id="tspan5487-2">IBM Cloud </tspan>請求</tspan></text>
  <text
     xml:space="preserve"
     style="font-size:13.75px;font-style:normal;font-variant:normal;font-weight:normal;font-stretch:normal;text-align:center;line-height:100%;letter-spacing:0px;word-spacing:0px;writing-mode:lr-tb;text-anchor:middle;fill:#000000;fill-opacity:1;stroke:none;font-family:MS UI Gothic;-inkscape-font-specification:MS UI Gothic"
     x="751.22882"
     y="270.18857"
     id="text5816"
     sodipodi:linespacing="100%"><tspan
       sodipodi:role="line"
       id="tspan5818"
       x="751.22882"
       y="270.18857"
       style="font-size:30px;font-style:normal;font-variant:normal;font-weight:normal;font-stretch:normal;text-align:center;line-height:100%;writing-mode:lr-tb;text-anchor:middle;font-family:MS UI Gothic;-inkscape-font-specification:MS UI Gothic">アカウントのリンク後、</tspan><tspan
       sodipodi:role="line"
       x="751.22882"
       y="300.18857"
       id="tspan5820"
       style="font-size:30px;font-style:normal;font-variant:normal;font-weight:normal;font-stretch:normal;text-align:center;line-height:100%;writing-mode:lr-tb;text-anchor:middle;font-family:MS UI Gothic;-inkscape-font-specification:MS UI Gothic">現行月の請求処理サイクルの</tspan><tspan
       sodipodi:role="line"
       x="751.22882"
       y="330.18857"
       id="tspan5822"
       style="font-size:30px;font-style:normal;font-variant:normal;font-weight:normal;font-stretch:normal;text-align:center;line-height:100%;writing-mode:lr-tb;text-anchor:middle;font-family:MS UI Gothic;-inkscape-font-specification:MS UI Gothic"><tspan
   style="-inkscape-font-specification:Arial;font-family:Arial;font-weight:normal;font-style:normal;font-stretch:normal;font-variant:normal"
   id="tspan5952">IBM Cloud </tspan>使用量に対して</tspan><tspan
       sodipodi:role="line"
       x="751.22882"
       y="360.18857"
       id="tspan5824"
       style="font-size:30px;font-style:normal;font-variant:normal;font-weight:normal;font-stretch:normal;text-align:center;line-height:100%;writing-mode:lr-tb;text-anchor:middle;font-family:MS UI Gothic;-inkscape-font-specification:MS UI Gothic">別個の請求を受け取る</tspan></text>
  <text
     xml:space="preserve"
     style="font-size:13.75px;font-style:normal;font-variant:normal;font-weight:normal;font-stretch:normal;text-align:center;line-height:125%;letter-spacing:0px;word-spacing:0px;writing-mode:lr-tb;text-anchor:middle;fill:#000000;fill-opacity:1;stroke:none;font-family:MS UI Gothic;-inkscape-font-specification:MS UI Gothic"
     x="1377.2917"
     y="446.1875"
     id="text5483-6-9"
     sodipodi:linespacing="125%"><tspan
       sodipodi:role="line"
       id="tspan5485-3-3"
       x="1377.2917"
       y="446.1875"
       style="font-size:32px;font-weight:bold;-inkscape-font-specification:Arial Bold"><tspan
   style="font-style:normal;font-variant:normal;font-weight:bold;font-stretch:normal;font-family:Arial;-inkscape-font-specification:Arial Bold"
   id="tspan5487-2-8">IBM Cloud </tspan>請求</tspan></text>
  <text
     xml:space="preserve"
     style="font-size:13.75px;font-style:normal;font-variant:normal;font-weight:normal;font-stretch:normal;text-align:center;line-height:125%;letter-spacing:0px;word-spacing:0px;writing-mode:lr-tb;text-anchor:middle;fill:#000000;fill-opacity:1;stroke:none;font-family:MS UI Gothic;-inkscape-font-specification:MS UI Gothic"
     x="1004.5798"
     y="662.73834"
     id="text5747-7"
     sodipodi:linespacing="125%"><tspan
       sodipodi:role="line"
       id="tspan5749-6"
       x="1004.5798"
       y="662.73834"
       style="font-size:32px;font-weight:bold;-inkscape-font-specification:Arial Bold"><tspan
         style="font-style:normal;font-variant:normal;font-weight:bold;font-stretch:normal;font-family:Arial;-inkscape-font-specification:Arial Bold"
         id="tspan5751-9">Infrastructure </tspan><tspan
         style="font-style:normal;font-variant:normal;font-weight:bold;font-stretch:normal;font-family:MS Gothic;-inkscape-font-specification:Arial Bold"
         id="tspan5753-3">請求</tspan></tspan></text>
  <text
     xml:space="preserve"
     style="font-size:13.75px;font-style:normal;font-variant:normal;font-weight:normal;font-stretch:normal;text-align:center;line-height:100%;letter-spacing:0px;word-spacing:0px;writing-mode:lr-tb;text-anchor:middle;fill:#000000;fill-opacity:1;stroke:none;font-family:MS UI Gothic;-inkscape-font-specification:MS UI Gothic"
     x="1376.4745"
     y="491.98727"
     id="text5907"
     sodipodi:linespacing="100%"><tspan
       sodipodi:role="line"
       id="tspan5909"
       x="1376.4745"
       y="491.98727"
       style="font-size:30px;font-style:normal;font-variant:normal;font-weight:normal;font-stretch:normal;text-align:center;line-height:100%;writing-mode:lr-tb;text-anchor:middle;font-family:MS UI Gothic;-inkscape-font-specification:MS UI Gothic">次の請求処理サイクルで、</tspan><tspan
       sodipodi:role="line"
       x="1376.4745"
       y="521.9873"
       style="font-size:30px;font-style:normal;font-variant:normal;font-weight:normal;font-stretch:normal;text-align:center;line-height:100%;writing-mode:lr-tb;text-anchor:middle;font-family:MS UI Gothic;-inkscape-font-specification:MS UI Gothic"
       id="tspan5944">Infrastructure と</tspan><tspan
       sodipodi:role="line"
       x="1376.4745"
       y="551.9873"
       style="font-size:30px;font-style:normal;font-variant:normal;font-weight:normal;font-stretch:normal;text-align:center;line-height:100%;writing-mode:lr-tb;text-anchor:middle;font-family:MS UI Gothic;-inkscape-font-specification:MS UI Gothic"
       id="tspan5946">IBM Cloud の課金が含まれた</tspan><tspan
       sodipodi:role="line"
       x="1376.4745"
       y="581.9873"
       id="tspan5915"
       style="font-size:30px;font-style:normal;font-variant:normal;font-weight:normal;font-stretch:normal;text-align:center;line-height:100%;writing-mode:lr-tb;text-anchor:middle;font-family:MS UI Gothic;-inkscape-font-specification:MS UI Gothic">単一の<tspan
   style="font-style:normal;font-variant:normal;font-weight:normal;font-stretch:normal;font-family:Arial;-inkscape-font-specification:Arial"
   id="tspan5923"> IBM Cloud </tspan>請求を受け取る</tspan></text>
  <text
     xml:space="preserve"
     style="font-size:13.75px;font-style:normal;font-variant:normal;font-weight:normal;font-stretch:normal;text-align:center;line-height:100%;letter-spacing:0px;word-spacing:0px;writing-mode:lr-tb;text-anchor:middle;fill:#000000;fill-opacity:1;stroke:none;font-family:MS UI Gothic;-inkscape-font-specification:MS UI Gothic"
     x="1009.8686"
     y="709.59113"
     id="text5929"
     sodipodi:linespacing="100%"><tspan
       sodipodi:role="line"
       id="tspan5931"
       x="1009.8686"
       y="709.59113"
       style="font-size:30px;font-style:normal;font-variant:normal;font-weight:normal;font-stretch:normal;text-align:center;line-height:100%;writing-mode:lr-tb;text-anchor:middle;font-family:MS UI Gothic;-inkscape-font-specification:MS UI Gothic">アカウントをリンクしたタイミングによっては、</tspan><tspan
       sodipodi:role="line"
       x="1009.8686"
       y="739.59113"
       id="tspan5933"
       style="font-size:30px;font-style:normal;font-variant:normal;font-weight:normal;font-stretch:normal;text-align:center;line-height:100%;writing-mode:lr-tb;text-anchor:middle;font-family:MS UI Gothic;-inkscape-font-specification:MS UI Gothic">現行の請求処理サイクルの</tspan><tspan
       sodipodi:role="line"
       x="1009.8686"
       y="769.59113"
       id="tspan5935"
       style="font-size:30px;font-style:normal;font-variant:normal;font-weight:normal;font-stretch:normal;text-align:center;line-height:100%;writing-mode:lr-tb;text-anchor:middle;font-family:MS UI Gothic;-inkscape-font-specification:MS UI Gothic"><tspan
   style="font-style:normal;font-variant:normal;font-weight:normal;font-stretch:normal;font-family:Arial;-inkscape-font-specification:Arial"
   id="tspan5939">Infrastructure </tspan>使用量に対して</tspan><tspan
       sodipodi:role="line"
       x="1009.8686"
       y="805.3186"
       id="tspan5937"
       style="font-size:30px;font-style:normal;font-variant:normal;font-weight:normal;font-stretch:normal;text-align:center;line-height:100%;writing-mode:lr-tb;text-anchor:middle;font-family:MS UI Gothic;-inkscape-font-specification:MS UI Gothic">別個の請求を受け取ることがある</tspan></text>
  <text
     xml:space="preserve"
     style="font-size:13.75px;font-style:normal;font-variant:normal;font-weight:normal;font-stretch:normal;text-align:center;line-height:100%;letter-spacing:0px;word-spacing:0px;writing-mode:lr-tb;text-anchor:middle;fill:#000000;fill-opacity:1;stroke:none;font-family:MS UI Gothic;-inkscape-font-specification:MS UI Gothic"
     x="471.83685"
     y="501.2352"
     id="text5954"
     sodipodi:linespacing="100%"><tspan
       sodipodi:role="line"
       id="tspan5956"
       x="471.83685"
       y="501.2352"
       style="font-size:32px;font-style:normal;font-variant:normal;font-weight:bold;font-stretch:normal;text-align:center;line-height:100%;writing-mode:lr-tb;text-anchor:middle;font-family:MS UI Gothic;-inkscape-font-specification:Arial Bold"><tspan
   style="font-style:normal;font-variant:normal;font-weight:bold;font-stretch:normal;font-family:Arial;-inkscape-font-specification:Arial Bold"
   id="tspan5962">IBM Cloud </tspan>と</tspan><tspan
       sodipodi:role="line"
       x="471.83685"
       y="539.34454"
       id="tspan5958"
       style="font-size:32px;font-style:normal;font-variant:normal;font-weight:bold;font-stretch:normal;text-align:center;line-height:100%;writing-mode:lr-tb;text-anchor:middle;font-family:MS UI Gothic;-inkscape-font-specification:Arial Bold"><tspan
   style="font-style:normal;font-variant:normal;font-weight:bold;font-stretch:normal;font-family:Arial;-inkscape-font-specification:Arial Bold"
   id="tspan5964">Infrastructure </tspan>アカウントのリンク</tspan></text>
</svg>
