<?xml version="1.0" encoding="UTF-8" standalone="no"?>
<svg
   xmlns:dc="http://purl.org/dc/elements/1.1/"
   xmlns:cc="http://creativecommons.org/ns#"
   xmlns:rdf="http://www.w3.org/1999/02/22-rdf-syntax-ns#"
   xmlns:svg="http://www.w3.org/2000/svg"
   xmlns="http://www.w3.org/2000/svg"
   xmlns:xlink="http://www.w3.org/1999/xlink"
   xmlns:sodipodi="http://sodipodi.sourceforge.net/DTD/sodipodi-0.dtd"
   xmlns:inkscape="http://www.inkscape.org/namespaces/inkscape"
   width="1671px"
   height="873px"
   viewBox="0 0 1671 873"
   version="1.1"
   id="svg150"
   sodipodi:docname="IBMCloudSoftLayerBill.svg"
   inkscape:version="0.92.3 (2405546, 2018-03-11)">
  <metadata
     id="metadata154">
    <rdf:RDF>
      <cc:Work
         rdf:about="">
        <dc:format>image/svg+xml</dc:format>
        <dc:type
           rdf:resource="http://purl.org/dc/dcmitype/StillImage" />
      </cc:Work>
    </rdf:RDF>
  </metadata>
  <sodipodi:namedview
     pagecolor="#ffffff"
     bordercolor="#666666"
     borderopacity="1"
     objecttolerance="10"
     gridtolerance="10"
     guidetolerance="10"
     inkscape:pageopacity="0"
     inkscape:pageshadow="2"
     inkscape:window-width="2304"
     inkscape:window-height="1202"
     id="namedview152"
     showgrid="false"
     inkscape:zoom="1.0813288"
     inkscape:cx="1175.6362"
     inkscape:cy="401.39962"
     inkscape:window-x="-11"
     inkscape:window-y="-11"
     inkscape:window-maximized="1"
     inkscape:current-layer="svg150" />
  <!-- Generator: Sketch 47.1 (45422) - http://www.bohemiancoding.com/sketch -->
  <title
     id="title2">18</title>
  <desc
     id="desc4">Created with Sketch.</desc>
  <defs
     id="defs7">
    <polygon
       id="path-1"
       points="89.9997 0 0 0 0 89.9997 89.9997 89.9997" />
  </defs>
  <polyline
     style="fill:none;fill-rule:evenodd;stroke:#ff2f2f;stroke-width:6"
     points="166 545 418.6837 544 430.5038 504"
     id="Stroke-36"
     transform="translate(40,66)" />
  <polyline
     style="fill:none;fill-rule:evenodd;stroke:#5596e6;stroke-width:6"
     points="166 253 418.6837 254 430.5038 294"
     id="Stroke-38"
     transform="translate(40,66)" />
  <text
     style="font-style:normal;font-variant:normal;font-weight:bold;font-stretch:normal;font-size:32px;font-family:HelvNeueBoldforIBM, 'HelvNeue Bold for IBM';-inkscape-font-specification:'HelvNeueBoldforIBM, HelvNeue Bold for IBM, Bold';font-variant-ligatures:normal;font-variant-caps:normal;font-variant-numeric:normal;font-feature-settings:normal;text-align:center;writing-mode:lr-tb;text-anchor:middle;fill:#3c3232;fill-rule:evenodd;stroke:none;stroke-width:1"
     font-weight="bold"
     font-size="32"
     id="IBM-Cloud-bill"
     x="158.37288"
     y="380.42798">
    <tspan
       sodipodi:role="line"
       id="tspan408"
       x="158.37288"
       y="380.42798">Facture</tspan>
    <tspan
       sodipodi:role="line"
       id="tspan410"
       x="158.37288"
       y="420.42798">IBM Cloud</tspan>
  </text>
  <text
     style="font-style:normal;font-variant:normal;font-weight:bold;font-stretch:normal;font-size:32px;font-family:HelvNeueBoldforIBM, 'HelvNeue Bold for IBM';-inkscape-font-specification:'HelvNeueBoldforIBM, HelvNeue Bold for IBM, Bold';font-variant-ligatures:normal;font-variant-caps:normal;font-variant-numeric:normal;font-feature-settings:normal;text-align:center;writing-mode:lr-tb;text-anchor:middle;fill:#3c3232;fill-rule:evenodd;stroke:none;stroke-width:1"
     font-weight="bold"
     font-size="32"
     id="Infrastructure-bill"
     x="154.67372"
     y="670.81146">
    <tspan
       sodipodi:role="line"
       id="tspan416"
       x="154.67372"
       y="670.81146">Facture</tspan>
    <tspan
       sodipodi:role="line"
       id="tspan418"
       x="154.67372"
       y="710.81146">Infrastructure</tspan>
  </text>
  <g
     style="fill:#ff2f2f;fill-rule:nonzero;stroke:none;stroke-width:1"
     transform="translate(118,510)"
     id="Page-1">
    <path
       inkscape:connector-curvature="0"
       id="Fill-1"
       d="m 0,0.9994 v 120 h 80 v -88 l -32,-32 z m 4,4.002 h 40 v 31.998 h 32 v 80.002 H 4 Z" />
    <polygon
       points="64,49 16,49 16,53 64,53 "
       id="Fill-2" />
    <polygon
       points="64,57 16,57 16,61 64,61 "
       id="Fill-3" />
    <polygon
       points="40,65 16,65 16,69 40,69 "
       id="Fill-4" />
  </g>
  <text
     style="font-weight:bold;font-size:32px;font-family:HelvNeueBoldforIBM, 'HelvNeue Bold for IBM';fill:#3c3232;fill-rule:evenodd;stroke:none;stroke-width:1"
     font-weight="bold"
     font-size="32"
     id="text24"
     x="-34"
     y="66">
    <tspan
       id="tspan22"
       y="660"
       x="804.02802">Facture Infrastructure</tspan>
  </text>
  <g
     style="fill:#ff2f2f;fill-rule:nonzero;stroke:none;stroke-width:1"
     transform="translate(966,499)"
     id="g34">
    <path
       inkscape:connector-curvature="0"
       id="path26"
       d="m 0,0.9994 v 120 h 80 v -88 l -32,-32 z m 4,4.002 h 40 v 31.998 h 32 v 80.002 H 4 Z" />
    <polygon
       points="64,49 16,49 16,53 64,53 "
       id="polygon28" />
    <polygon
       points="64,57 16,57 16,61 64,61 "
       id="polygon30" />
    <polygon
       points="40,65 16,65 16,69 40,69 "
       id="polygon32" />
  </g>
  <g
     style="fill:#5596e6;fill-rule:nonzero;stroke:none;stroke-width:1"
     transform="translate(118,222)"
     id="g44">
    <path
       inkscape:connector-curvature="0"
       id="path36"
       d="M 0,0.14226286 V 118.99941 H 80 V 31.837501 L 48,0.14226286 Z M 4,4.1061486 H 44 V 35.799406 H 76 V 115.03948 H 4 Z" />
    <polygon
       points="64,47.685714 16,47.685714 16,51.647619 64,51.647619 "
       id="polygon38" />
    <polygon
       points="64,55.609524 16,55.609524 16,59.571429 64,59.571429 "
       id="polygon40" />
    <polygon
       points="40,63.533333 16,63.533333 16,67.495238 40,67.495238 "
       id="polygon42" />
  </g>
  <text
     style="font-weight:bold;font-size:32px;font-family:HelvNeueBoldforIBM, 'HelvNeue Bold for IBM';fill:#3c3232;fill-rule:evenodd;stroke:none;stroke-width:1"
     font-weight="bold"
     font-size="32"
     id="text48"
     x="-44"
     y="66">
    <tspan
       id="tspan46"
       y="227"
       x="584.92401">Facture IBM Cloud</tspan>
  </text>
  <g
     style="fill:#5596e6;fill-rule:nonzero;stroke:none;stroke-width:1"
     transform="translate(713,66)"
     id="g58">
    <path
       inkscape:connector-curvature="0"
       id="path50"
       d="m 0,0.9994 v 120 h 80 v -88 l -32,-32 z m 4,4.002 h 40 v 31.998 h 32 v 80.002 H 4 Z" />
    <polygon
       points="64,49 16,49 16,53 64,53 "
       id="polygon52" />
    <polygon
       points="64,57 16,57 16,61 64,61 "
       id="polygon54" />
    <polygon
       points="40,65 16,65 16,69 40,69 "
       id="polygon56" />
  </g>
  <g
     style="fill:#5596e6;fill-rule:nonzero;stroke:none;stroke-width:1"
     transform="translate(1421,278)"
     id="g68">
    <path
       inkscape:connector-curvature="0"
       id="path60"
       d="m 0,0.9994 v 120 h 80 v -88 l -32,-32 z m 4,4.002 h 40 v 31.998 h 32 v 80.002 H 4 Z" />
    <polygon
       points="64,49 16,49 16,53 64,53 "
       id="polygon62" />
    <polygon
       points="64,57 16,57 16,61 64,61 "
       id="polygon64" />
    <polygon
       points="40,65 16,65 16,69 40,69 "
       id="polygon66" />
  </g>
  <g
     style="fill:none;fill-rule:evenodd;stroke:none;stroke-width:1"
     transform="translate(426,383)"
     id="g80">
    <g
       id="Fill-1-Clipped">
      <g
         id="g77">
        <mask
           fill="white"
           id="mask-2">
          <use
             height="100%"
             width="100%"
             y="0"
             x="0"
             id="use70"
             xlink:href="#path-1" />
        </mask>
        <g
           id="g73" />
        <path
           style="fill:#000000;fill-rule:nonzero"
           inkscape:connector-curvature="0"
           mask="url(#mask-2)"
           id="path75"
           d="m 79.6062,31.6062 -9,9 c -2.8335,2.8335 -6.6,4.3935 -10.6065,4.3935 -1.9275,0 -3.8025,-0.348 -5.535,-0.9795 l 12.7785,-12.777 -8.4855,-8.4855 -12.7785,12.777 c -0.6315,-1.731 -0.9795,-3.606 -0.9795,-5.535 0,-4.0065 1.56,-7.773 4.3935,-10.6065 l 9,-9 c 2.8335,-2.8335 6.6,-4.3935 10.6065,-4.3935 4.0065,0 7.773,1.56 10.6065,4.3935 2.8335,2.8335 4.3935,6.6 4.3935,10.6065 0,4.0065 -1.56,7.773 -4.3935,10.6065 M 44.9997,59.9997 c 0,4.0065 -1.56,7.773 -4.3935,10.6065 l -9,9 c -2.8335,2.8335 -6.6,4.3935 -10.6065,4.3935 -4.0065,0 -7.773,-1.56 -10.6065,-4.3935 -2.8335,-2.8335 -4.3935,-6.6 -4.3935,-10.6065 0,-4.0065 1.56,-7.773 4.3935,-10.6065 l 9,-9 c 2.8335,-2.8335 6.6,-4.3935 10.6065,-4.3935 1.929,0 3.804,0.348 5.535,0.9795 l -12.777,12.7785 8.4855,8.4855 12.777,-12.7785 c 0.6315,1.7325 0.9795,3.6075 0.9795,5.535 m 38.85,-53.8485 c -3.801,-3.7995 -9.051,-6.1515 -14.85,-6.1515 -5.799,0 -11.049,2.352 -14.8485,6.1515 l -9,9 c -3.7995,3.7995 -6.1515,9.0495 -6.1515,14.8485 0,3.6165 0.858,7.077 2.4225,10.092 l -1.3305,1.3305 c -3.0135,-1.5645 -6.4755,-2.4225 -10.092,-2.4225 -5.799,0 -11.049,2.352 -14.8485,6.1515 l -9,9 C 2.3517,57.9507 -3e-4,63.2007 -3e-4,68.9997 c 0,5.799 2.352,11.049 6.1515,14.85 3.7995,3.7995 9.0495,6.15 14.8485,6.15 5.799,0 11.049,-2.3505 14.85,-6.15 l 9,-9 c 3.7995,-3.801 6.15,-9.051 6.15,-14.85 0,-3.6165 -0.8565,-7.077 -2.4225,-10.092 l 1.3305,-1.3305 c 3.015,1.566 6.4755,2.4225 10.092,2.4225 5.799,0 11.049,-2.3505 14.85,-6.15 l 9,-9 c 3.7995,-3.801 6.15,-9.051 6.15,-14.85 0,-5.799 -2.3505,-11.049 -6.15,-14.8485" />
      </g>
    </g>
  </g>
  <text
     style="font-style:normal;font-variant:normal;font-weight:bold;font-stretch:normal;font-size:32px;font-family:HelvNeueBoldforIBM, 'HelvNeue Bold for IBM';-inkscape-font-specification:'HelvNeueBoldforIBM, HelvNeue Bold for IBM, Bold';font-variant-ligatures:normal;font-variant-caps:normal;font-variant-numeric:normal;font-feature-settings:normal;text-align:center;writing-mode:lr-tb;text-anchor:middle;fill:#3c3232;fill-rule:evenodd;stroke:none;stroke-width:1"
     font-weight="bold"
     font-size="32"
     id="Link-IBM-Cloud-and"
     x="472.80084"
     y="493.25211">
    <tspan
       sodipodi:role="line"
       id="tspan464"
       x="472.80084"
       y="493.25211">Lier IBM Cloud et les</tspan>
    <tspan
       sodipodi:role="line"
       id="tspan466"
       x="472.80084"
       y="533.25214">comptes Infrastructure</tspan>
  </text>
  <text
     style="font-style:normal;font-variant:normal;font-weight:normal;font-stretch:normal;font-size:30px;font-family:HelveticaNeue, 'Helvetica Neue';-inkscape-font-specification:'HelveticaNeue, Helvetica Neue, Normal';font-variant-ligatures:normal;font-variant-caps:normal;font-variant-numeric:normal;font-feature-settings:normal;text-align:center;writing-mode:lr;text-anchor:middle;fill:#3c3232;fill-rule:evenodd;stroke:none;stroke-width:1;"
     font-weight="normal"
     font-size="30"
     id="For-the-next-billing-cycle,-you"
     x="1473.8899"
     y="482.00424">
    <tspan
       sodipodi:role="line"
       id="tspan498">A partir du prochain cycle</tspan>
    <tspan
       sodipodi:role="line"
       id="tspan500">de facturation, vous allez</tspan>
    <tspan
       sodipodi:role="line"
       id="tspan502">recevoir une seule facture</tspan>
    <tspan
       sodipodi:role="line"
       id="tspan504">IBM Cloud incluant vos</tspan>
    <tspan
       sodipodi:role="line"
       id="tspan506">charges Infrastructure et</tspan>
    <tspan
       sodipodi:role="line"
       id="tspan508">IBM Cloud.</tspan>
  </text>
  <text
     style="font-weight:bold;font-size:32px;font-family:HelvNeueBoldforIBM, 'HelvNeue Bold for IBM';fill:#3c3232;fill-rule:evenodd;stroke:none;stroke-width:1"
     font-weight="bold"
     font-size="32"
     id="text102"
     x="40"
     y="66">
    <tspan
       id="tspan100"
       y="443"
       x="1286.864">Facture IBM Cloud</tspan>
  </text>
  <g
     style="fill:none;fill-rule:evenodd;stroke:#af6ee8;stroke-width:6"
     transform="matrix(1,0,0,-1,517,438)"
     id="Group">
    <path
       inkscape:connector-curvature="0"
       id="Line"
       d="M 0.26034483,3.5 H 730" />
    <path
       inkscape:connector-curvature="0"
       id="Line-decoration-1"
       d="m 730,0.5 v 6" />
  </g>
  <text
     style="font-style:normal;font-variant:normal;font-weight:normal;font-stretch:normal;font-size:30px;font-family:HelveticaNeue, 'Helvetica Neue';-inkscape-font-specification:'HelveticaNeue, Helvetica Neue, Normal';font-variant-ligatures:normal;font-variant-caps:normal;font-variant-numeric:normal;font-feature-settings:normal;text-align:center;writing-mode:lr;text-anchor:middle;fill:#1a1314;fill-rule:evenodd;stroke:none;stroke-width:1;"
     font-weight="normal"
     font-size="30"
     id="After-you-link-accounts,-you"
     x="734.51587"
     y="260.20551">
    <tspan
       sodipodi:role="line"
       id="tspan446">Une fois vos comptes liés, vous recevrez</tspan>
    <tspan
       sodipodi:role="line"
       id="tspan448">une facture distincte pour votre utilisation</tspan>
    <tspan
       sodipodi:role="line"
       id="tspan450">d'IBM Cloud pour le cycle de</tspan>
    <tspan
       sodipodi:role="line"
       id="tspan452">facturation du mois en cours.</tspan>
  </text>
  <text
     style="font-style:normal;font-variant:normal;font-weight:normal;font-stretch:normal;font-size:30px;font-family:HelveticaNeue, 'Helvetica Neue';-inkscape-font-specification:'HelveticaNeue, Helvetica Neue, Normal';font-variant-ligatures:normal;font-variant-caps:normal;font-variant-numeric:normal;font-feature-settings:normal;text-align:center;writing-mode:lr;text-anchor:middle;fill:#3c3232;fill-rule:evenodd;stroke:none;stroke-width:1;"
     font-weight="normal"
     font-size="30"
     id="You-might-receive-a-separate-bill"
     x="998.50952"
     y="701.32947">
    <tspan
       sodipodi:role="line"
       id="tspan510">Il se peut que vous receviez une facture</tspan>
    <tspan
       sodipodi:role="line"
       id="tspan512">distincte pour l'utilisation d'Infrastructure</tspan>
    <tspan
       sodipodi:role="line"
       id="tspan514">pour le cycle de facturation du mois en</tspan>
    <tspan
       sodipodi:role="line"
       id="tspan516">cours, selon le moment auquel vous avez</tspan>
    <tspan
       sodipodi:role="line"
       id="tspan518">lié vos comptes.</tspan>
  </text>
  <g
     style="fill:none;fill-rule:evenodd;stroke:none;stroke-width:1"
     transform="translate(640,391)"
     id="Group-2">
    <path
       style="stroke:#5596e6;stroke-dasharray:15, 5"
       inkscape:connector-curvature="0"
       transform="matrix(1,0,0,-1,0,1)"
       id="path131"
       d="M 2.6203008,0 H 220.51504" />
    <path
       style="stroke:#af6ee8"
       inkscape:connector-curvature="0"
       transform="matrix(1,0,0,-1,0,41)"
       id="path133"
       d="M 0,0 V 41" />
    <path
       style="stroke:#af6ee8"
       inkscape:connector-curvature="0"
       transform="matrix(1,0,0,-1,0,41)"
       id="Line-Copy"
       d="M 226,0 V 41" />
  </g>
  <g
     style="fill:none;fill-rule:evenodd;stroke:none;stroke-width:1"
     transform="rotate(180,554,237.5)"
     id="g143">
    <path
       style="stroke:#ff2f2f;stroke-dasharray:15, 5"
       inkscape:connector-curvature="0"
       transform="matrix(1,0,0,-1,0,1)"
       id="path137"
       d="M 2.0582707,0 H 198.16353" />
    <path
       style="stroke:#af6ee8"
       inkscape:connector-curvature="0"
       transform="matrix(1,0,0,-1,0,41.774194)"
       id="path139"
       d="M 0,0.7741935 V 41" />
    <path
       style="stroke:#af6ee8"
       inkscape:connector-curvature="0"
       transform="matrix(1,0,0,-1,0,41.774194)"
       id="path141"
       d="M 204,0.7741935 V 41" />
  </g>
</svg>
