<?xml version="1.0" encoding="UTF-8" standalone="no"?>
<svg
   xmlns:dc="http://purl.org/dc/elements/1.1/"
   xmlns:cc="http://creativecommons.org/ns#"
   xmlns:rdf="http://www.w3.org/1999/02/22-rdf-syntax-ns#"
   xmlns:svg="http://www.w3.org/2000/svg"
   xmlns="http://www.w3.org/2000/svg"
   xmlns:xlink="http://www.w3.org/1999/xlink"
   xmlns:sodipodi="http://sodipodi.sourceforge.net/DTD/sodipodi-0.dtd"
   xmlns:inkscape="http://www.inkscape.org/namespaces/inkscape"
   width="1671px"
   height="873px"
   viewBox="0 0 1671 873"
   version="1.1"
   id="svg2"
   inkscape:version="0.91 r13725"
   sodipodi:docname="bluemixsoftlayerbill.svg"
   inkscape:export-filename="W:\PUB\ABD042\ART\WORK\ship21\admin\images\bluemixsoftlayerbill.png"
   inkscape:export-xdpi="112.743"
   inkscape:export-ydpi="112.743">
  <metadata
     id="metadata154">
    <rdf:RDF>
      <cc:Work
         rdf:about="">
        <dc:format>image/svg+xml</dc:format>
        <dc:type
           rdf:resource="http://purl.org/dc/dcmitype/StillImage" />
      </cc:Work>
    </rdf:RDF>
  </metadata>
  <sodipodi:namedview
     pagecolor="#ffffff"
     bordercolor="#666666"
     borderopacity="1"
     objecttolerance="10"
     gridtolerance="10"
     guidetolerance="10"
     inkscape:pageopacity="0"
     inkscape:pageshadow="2"
     inkscape:window-width="1920"
     inkscape:window-height="1015"
     id="namedview152"
     showgrid="false"
     inkscape:zoom="0.84242388"
     inkscape:cx="858.71785"
     inkscape:cy="437.96759"
     inkscape:window-x="-8"
     inkscape:window-y="-8"
     inkscape:window-maximized="1"
     inkscape:current-layer="svg2" />
  <!-- Generator: Sketch 47.1 (45422) - http://www.bohemiancoding.com/sketch -->
  <title
     id="title4">18</title>
  <desc
     id="desc6">Created with Sketch.</desc>
  <defs
     id="defs8">
    <polygon
       id="path-1"
       points="89.9997 0 0 0 0 89.9997 89.9997 89.9997" />
  </defs>
  <polyline
     style="fill:none;fill-rule:evenodd;stroke:#ff2f2f;stroke-width:6"
     points="166 545 418.6837 544 430.5038 504"
     id="Stroke-36"
     transform="translate(40,66)" />
  <polyline
     style="fill:none;fill-rule:evenodd;stroke:#5596e6;stroke-width:6"
     points="166 253 418.6837 254 430.5038 294"
     id="Stroke-38"
     transform="translate(40,66)" />
  <text
     style="font-weight:bold;font-size:32px;font-family:HelvNeueBoldforIBM, 'HelvNeue Bold for IBM';fill:#3c3232;fill-rule:evenodd;stroke:none;stroke-width:1;stroke-miterlimit:4;stroke-dasharray:none"
     font-weight="bold"
     font-size="32"
     id="IBM-Cloud-bill"
     x="40"
     y="66">
    <tspan
       style="stroke-width:1;stroke-miterlimit:4;stroke-dasharray:none"
       id="tspan18"
       y="373"
       x="73.423996">IBM Cloud <tspan
   id="tspan4282"
   style="font-style:normal;font-variant:normal;font-weight:normal;font-stretch:normal;font-size:32px;line-height:125%;font-family:Gulim;-inkscape-font-specification:'Gulim, Normal';text-align:start;writing-mode:lr-tb;text-anchor:start;stroke:#000000;stroke-width:1;stroke-miterlimit:4;stroke-dasharray:none;stroke-opacity:1">청구</tspan>
</tspan>
  </text>
  <text
     sodipodi:linespacing="125%"
     style="font-style:normal;font-variant:normal;font-weight:normal;font-stretch:normal;font-size:32px;line-height:125%;font-family:Gulim;-inkscape-font-specification:'Gulim, Normal';text-align:start;writing-mode:lr-tb;text-anchor:start;fill:#3c3232;fill-rule:evenodd;stroke:#000000;stroke-width:1;stroke-miterlimit:4;stroke-dasharray:none;stroke-opacity:1"
     font-weight="bold"
     font-size="32"
     id="Infrastructure-bill"
     x="70"
     y="66">
    <tspan
       style="font-style:normal;font-variant:normal;font-weight:normal;font-stretch:normal;font-size:32px;line-height:125%;font-family:Gulim;-inkscape-font-specification:'Gulim, Normal';text-align:start;writing-mode:lr-tb;text-anchor:start;stroke:#000000;stroke-width:1;stroke-miterlimit:4;stroke-dasharray:none;stroke-opacity:1"
       id="tspan21"
       y="663"
       x="70.951996">인프라 청구</tspan>
  </text>
  <g
     style="fill:#ff2f2f;fill-rule:nonzero;stroke:none;stroke-width:1"
     transform="translate(118,510)"
     id="g23">
    <path
       inkscape:connector-curvature="0"
       id="Fill-1"
       d="m 0,0.9994 0,120 80,0 0,-88 -32,-32 -48,0 0,0 z m 4,4.002 40,0 0,31.998 32,0 0,80.002 -72,0 0,-112 0,0 z" />
    <polygon
       points="64,49 16,49 16,53 64,53 "
       id="Fill-2" />
    <polygon
       points="64,57 16,57 16,61 64,61 "
       id="Fill-3" />
    <polygon
       points="40,65 16,65 16,69 40,69 "
       id="Fill-4" />
  </g>
  <text
     style="font-weight:normal;font-size:32.00000048px;font-family:Gulim;fill:#3c3232;fill-rule:evenodd;stroke:#000000;stroke-width:1;-inkscape-font-specification:'Gulim, Normal';font-style:normal;font-stretch:normal;font-variant:normal;text-anchor:start;text-align:start;writing-mode:lr;line-height:125%;stroke-miterlimit:4;stroke-dasharray:none;stroke-opacity:1"
     font-weight="bold"
     font-size="32"
     id="text29"
     x="84"
     y="66"
     sodipodi:linespacing="125%">
    <tspan
       id="tspan31"
       y="660"
       x="922.02802"
       style="-inkscape-font-specification:'Gulim, Normal';font-family:Gulim;font-weight:normal;font-style:normal;font-stretch:normal;font-variant:normal;font-size:32.00000048px;text-anchor:start;text-align:start;writing-mode:lr;line-height:125%;stroke-width:1;stroke-miterlimit:4;stroke-dasharray:none;stroke:#000000;stroke-opacity:1">인프라 청구</tspan>
  </text>
  <g
     style="fill:#ff2f2f;fill-rule:nonzero;stroke:none;stroke-width:1"
     transform="translate(966,499)"
     id="g33">
    <path
       inkscape:connector-curvature="0"
       id="path35"
       d="m 0,0.9994 0,120 80,0 0,-88 -32,-32 -48,0 0,0 z m 4,4.002 40,0 0,31.998 32,0 0,80.002 -72,0 0,-112 0,0 z" />
    <polygon
       points="64,49 16,49 16,53 64,53 "
       id="polygon37" />
    <polygon
       points="64,57 16,57 16,61 64,61 "
       id="polygon39" />
    <polygon
       points="40,65 16,65 16,69 40,69 "
       id="polygon41" />
  </g>
  <g
     style="fill:#5596e6;fill-rule:nonzero;stroke:none;stroke-width:1"
     transform="translate(118,222)"
     id="g43">
    <path
       inkscape:connector-curvature="0"
       id="path45"
       d="M 0,0.14226286 0,118.99941 l 80,0 0,-87.161909 -32,-31.69523814 -48,0 0,0 z m 4,3.96388574 40,0 0,31.6932574 32,0 0,79.240074 -72,0 0,-110.9333314 0,0 z" />
    <polygon
       points="64,47.685714 16,47.685714 16,51.647619 64,51.647619 "
       id="polygon47" />
    <polygon
       points="64,55.609524 16,55.609524 16,59.571429 64,59.571429 "
       id="polygon49" />
    <polygon
       points="40,63.533333 16,63.533333 16,67.495238 40,67.495238 "
       id="polygon51" />
  </g>
  <text
     style="font-weight:bold;font-size:32px;font-family:HelvNeueBoldforIBM, 'HelvNeue Bold for IBM';fill:#3c3232;fill-rule:evenodd;stroke:none;stroke-width:1;stroke-miterlimit:4;stroke-dasharray:none"
     font-weight="bold"
     font-size="32"
     id="text53"
     x="40"
     y="66"
     sodipodi:linespacing="125%">
    <tspan
       id="tspan55"
       y="227"
       x="668.92401"
       style="stroke-width:1;stroke-miterlimit:4;stroke-dasharray:none">IBM Cloud <tspan
   style="-inkscape-font-specification:'Gulim, Normal';font-family:Gulim;font-weight:normal;font-style:normal;font-stretch:normal;font-variant:normal;font-size:32.00000048px;text-anchor:start;text-align:start;writing-mode:lr;line-height:125%;stroke-width:1;stroke-miterlimit:4;stroke-dasharray:none;stroke:#000000;stroke-opacity:1"
   id="tspan4487">청구</tspan>
</tspan>
  </text>
  <g
     style="fill:#5596e6;fill-rule:nonzero;stroke:none;stroke-width:1"
     transform="translate(713,66)"
     id="g57">
    <path
       inkscape:connector-curvature="0"
       id="path59"
       d="m 0,0.9994 0,120 80,0 0,-88 -32,-32 -48,0 0,0 z m 4,4.002 40,0 0,31.998 32,0 0,80.002 -72,0 0,-112 0,0 z" />
    <polygon
       points="64,49 16,49 16,53 64,53 "
       id="polygon61" />
    <polygon
       points="64,57 16,57 16,61 64,61 "
       id="polygon63" />
    <polygon
       points="40,65 16,65 16,69 40,69 "
       id="polygon65" />
  </g>
  <g
     style="fill:#5596e6;fill-rule:nonzero;stroke:none;stroke-width:1"
     transform="translate(1333,278)"
     id="g67">
    <path
       inkscape:connector-curvature="0"
       id="path69"
       d="m 0,0.9994 0,120 80,0 0,-88 -32,-32 -48,0 0,0 z m 4,4.002 40,0 0,31.998 32,0 0,80.002 -72,0 0,-112 0,0 z" />
    <polygon
       points="64,49 16,49 16,53 64,53 "
       id="polygon71" />
    <polygon
       points="64,57 16,57 16,61 64,61 "
       id="polygon73" />
    <polygon
       points="40,65 16,65 16,69 40,69 "
       id="polygon75" />
  </g>
  <g
     style="fill:none;fill-rule:evenodd;stroke:none;stroke-width:1"
     transform="translate(426,383)"
     id="g77">
    <g
       id="Fill-1-Clipped">
      <g
         id="g80">
        <mask
           fill="white"
           id="mask-2">
          <use
             height="100%"
             width="100%"
             y="0"
             x="0"
             id="use83"
             xlink:href="#path-1" />
        </mask>
        <g
           id="g85" />
        <path
           style="fill:#000000;fill-rule:nonzero"
           inkscape:connector-curvature="0"
           mask="url(#mask-2)"
           id="path87"
           d="m 79.6062,31.6062 -9,9 c -2.8335,2.8335 -6.6,4.3935 -10.6065,4.3935 -1.9275,0 -3.8025,-0.348 -5.535,-0.9795 l 12.7785,-12.777 -8.4855,-8.4855 -12.7785,12.777 c -0.6315,-1.731 -0.9795,-3.606 -0.9795,-5.535 0,-4.0065 1.56,-7.773 4.3935,-10.6065 l 9,-9 c 2.8335,-2.8335 6.6,-4.3935 10.6065,-4.3935 4.0065,0 7.773,1.56 10.6065,4.3935 2.8335,2.8335 4.3935,6.6 4.3935,10.6065 0,4.0065 -1.56,7.773 -4.3935,10.6065 M 44.9997,59.9997 c 0,4.0065 -1.56,7.773 -4.3935,10.6065 l -9,9 c -2.8335,2.8335 -6.6,4.3935 -10.6065,4.3935 -4.0065,0 -7.773,-1.56 -10.6065,-4.3935 -2.8335,-2.8335 -4.3935,-6.6 -4.3935,-10.6065 0,-4.0065 1.56,-7.773 4.3935,-10.6065 l 9,-9 c 2.8335,-2.8335 6.6,-4.3935 10.6065,-4.3935 1.929,0 3.804,0.348 5.535,0.9795 l -12.777,12.7785 8.4855,8.4855 12.777,-12.7785 c 0.6315,1.7325 0.9795,3.6075 0.9795,5.535 m 38.85,-53.8485 c -3.801,-3.7995 -9.051,-6.1515 -14.85,-6.1515 -5.799,0 -11.049,2.352 -14.8485,6.1515 l -9,9 c -3.7995,3.7995 -6.1515,9.0495 -6.1515,14.8485 0,3.6165 0.858,7.077 2.4225,10.092 l -1.3305,1.3305 c -3.0135,-1.5645 -6.4755,-2.4225 -10.092,-2.4225 -5.799,0 -11.049,2.352 -14.8485,6.1515 l -9,9 C 2.3517,57.9507 -3e-4,63.2007 -3e-4,68.9997 c 0,5.799 2.352,11.049 6.1515,14.85 3.7995,3.7995 9.0495,6.15 14.8485,6.15 5.799,0 11.049,-2.3505 14.85,-6.15 l 9,-9 c 3.7995,-3.801 6.15,-9.051 6.15,-14.85 0,-3.6165 -0.8565,-7.077 -2.4225,-10.092 l 1.3305,-1.3305 c 3.015,1.566 6.4755,2.4225 10.092,2.4225 5.799,0 11.049,-2.3505 14.85,-6.15 l 9,-9 c 3.7995,-3.801 6.15,-9.051 6.15,-14.85 0,-5.799 -2.3505,-11.049 -6.15,-14.8485" />
      </g>
    </g>
  </g>
  <text
     style="font-weight:bold;font-size:32px;font-family:HelvNeueBoldforIBM, 'HelvNeue Bold for IBM';fill:#3c3232;fill-rule:evenodd;stroke:none;stroke-width:1"
     font-weight="bold"
     font-size="32"
     id="Link-IBM-Cloud-and"
     x="40"
     y="66"
     sodipodi:linespacing="125%">
    <tspan
       id="tspan90"
       y="507"
       x="343.95599">IBM Cloud<tspan
   style="-inkscape-font-specification:'Gulim, Normal';font-family:Gulim;font-weight:normal;font-style:normal;font-stretch:normal;font-variant:normal;font-size:32.00000048px;text-anchor:start;text-align:start;writing-mode:lr;line-height:125%;stroke:#000000;stroke-opacity:1"
   id="tspan4483">와 인프라</tspan>
</tspan>
  </text>
  <text
     style="font-weight:normal;font-size:32.00000048px;font-family:Gulim;fill:#3c3232;fill-rule:evenodd;stroke:#000000;stroke-width:1;-inkscape-font-specification:'Gulim, Normal';font-style:normal;font-stretch:normal;font-variant:normal;text-anchor:start;text-align:start;writing-mode:lr;line-height:125%;stroke-opacity:1;"
     font-weight="bold"
     font-size="32"
     id="Infrastructure-accou"
     x="120"
     y="66"
     sodipodi:linespacing="125%">
    <tspan
       id="tspan93"
       y="546"
       x="404.91599"
       style="-inkscape-font-specification:'Gulim, Normal';font-family:Gulim;font-weight:normal;font-style:normal;font-stretch:normal;font-variant:normal;font-size:32.00000048px;text-anchor:start;text-align:start;writing-mode:lr;line-height:125%;stroke:#000000;stroke-opacity:1;">계정 연결</tspan>
  </text>
  <text
     style="font-weight:normal;font-size:30px;font-family:Gulim;fill:#3c3232;fill-rule:evenodd;stroke:none;stroke-width:1;-inkscape-font-specification:'Gulim, Normal';font-style:normal;font-stretch:normal;font-variant:normal;text-anchor:start;text-align:start;writing-mode:lr;line-height:125%;"
     font-weight="normal"
     font-size="30"
     id="For-the-next-billing-cycle,-you"
     x="102"
     y="66"
     sodipodi:linespacing="125%">
    <tspan
       id="tspan96"
       y="499"
       x="1236.285"
       style="-inkscape-font-specification:'Gulim, Normal';font-family:Gulim;font-weight:normal;font-style:normal;font-stretch:normal;font-variant:normal;font-size:30px;text-anchor:start;text-align:start;writing-mode:lr;line-height:125%;">다음 청구 주기에는</tspan>
  </text>
  <text
     style="font-weight:normal;font-size:30px;font-family:HelveticaNeue, 'Helvetica Neue';fill:#3c3232;fill-rule:evenodd;stroke:none;stroke-width:1"
     font-weight="normal"
     font-size="30"
     id="will-receive-a-singl"
     x="104"
     y="66"
     sodipodi:linespacing="125%">
    <tspan
       id="tspan99"
       y="531"
       x="1244.395"><tspan
   style="-inkscape-font-specification:'Gulim, Normal';font-family:Gulim;font-weight:normal;font-style:normal;font-stretch:normal;font-variant:normal;font-size:30px;text-anchor:start;text-align:start;writing-mode:lr;line-height:125%"
   id="tspan4477">인프라와</tspan>
 IBM Cloud</tspan>
  </text>
  <text
     style="font-weight:normal;font-size:30px;font-family:Gulim;fill:#3c3232;fill-rule:evenodd;stroke:none;stroke-width:1;-inkscape-font-specification:'Gulim, Normal';font-style:normal;font-stretch:normal;font-variant:normal;text-anchor:start;text-align:start;writing-mode:lr;line-height:125%;"
     font-weight="normal"
     font-size="30"
     id="bill-that-includes-y"
     x="118"
     y="66"
     sodipodi:linespacing="125%">
    <tspan
       id="tspan102"
       y="563"
       x="1237"
       style="-inkscape-font-specification:'Gulim, Normal';font-family:Gulim;font-weight:normal;font-style:normal;font-stretch:normal;font-variant:normal;font-size:30px;text-anchor:start;text-align:start;writing-mode:lr;line-height:125%;">요금이 포함된 단일</tspan>
  </text>
  <text
     style="font-weight:normal;font-size:30px;font-family:HelveticaNeue, 'Helvetica Neue';fill:#3c3232;fill-rule:evenodd;stroke:none;stroke-width:1"
     font-weight="normal"
     font-size="30"
     id="and-IBM-Cloud-charge"
     x="4"
     y="66"
     sodipodi:linespacing="125%">
    <tspan
       id="tspan105"
       y="595"
       x="1193.005">IBM Cloud <tspan
   style="-inkscape-font-specification:'Gulim, Normal';font-family:Gulim;font-weight:normal;font-style:normal;font-stretch:normal;font-variant:normal;font-size:30px;text-anchor:start;text-align:start;writing-mode:lr;line-height:125%"
   id="tspan4479">청구를 받게 됩니다</tspan>
.</tspan>
  </text>
  <text
     style="font-weight:bold;font-size:32px;font-family:HelvNeueBoldforIBM, 'HelvNeue Bold for IBM';fill:#3c3232;fill-rule:evenodd;stroke:none;stroke-width:1;stroke-miterlimit:4;stroke-dasharray:none"
     font-weight="bold"
     font-size="32"
     id="text107"
     x="40"
     y="66"
     sodipodi:linespacing="125%">
    <tspan
       id="tspan109"
       y="443"
       x="1286.864"
       style="stroke-width:1;stroke-miterlimit:4;stroke-dasharray:none">IBM Cloud <tspan
   style="-inkscape-font-specification:'Gulim, Normal';font-family:Gulim;font-weight:normal;font-style:normal;font-stretch:normal;font-variant:normal;font-size:32.00000048px;text-anchor:start;text-align:start;writing-mode:lr;line-height:125%;stroke:#000000;stroke-opacity:1;stroke-width:1;stroke-miterlimit:4;stroke-dasharray:none"
   id="tspan4481">청구</tspan>
</tspan>
  </text>
  <g
     style="fill:none;fill-rule:evenodd;stroke:#af6ee8;stroke-width:6"
     transform="matrix(1,0,0,-1,517,438)"
     id="Group">
    <path
       inkscape:connector-curvature="0"
       id="Line"
       d="M 0.26034483,3.5 730,3.5" />
    <path
       inkscape:connector-curvature="0"
       id="Line-decoration-1"
       d="m 730,0.5 0,6" />
  </g>
  <text
     style="font-weight:normal;font-size:30px;font-family:Gulim;fill:#1a1314;fill-rule:evenodd;stroke:none;stroke-width:1;-inkscape-font-specification:'Gulim, Normal';font-style:normal;font-stretch:normal;font-variant:normal;text-anchor:start;text-align:start;writing-mode:lr;line-height:125%;"
     font-weight="normal"
     font-size="30"
     id="After-you-link-accounts,-you"
     x="98"
     y="66"
     sodipodi:linespacing="125%">
    <tspan
       id="tspan115"
       y="269"
       x="597.04004"
       style="-inkscape-font-specification:'Gulim, Normal';font-family:Gulim;font-weight:normal;font-style:normal;font-stretch:normal;font-variant:normal;font-size:30px;text-anchor:start;text-align:start;writing-mode:lr;line-height:125%;">계정이 연결되면,</tspan>
  </text>
  <text
     style="font-weight:normal;font-size:30px;font-family:Gulim;fill:#1a1314;fill-rule:evenodd;stroke:none;stroke-width:1;-inkscape-font-specification:'Gulim, Normal';font-style:normal;font-stretch:normal;font-variant:normal;text-anchor:start;text-align:start;writing-mode:lr;line-height:125%;"
     font-weight="normal"
     font-size="30"
     id="will-receive-a-separate-bill-for-your"
     x="136"
     y="66"
     sodipodi:linespacing="125%">
    <tspan
       id="tspan118"
       y="301"
       x="594"
       style="-inkscape-font-specification:'Gulim, Normal';font-family:Gulim;font-weight:normal;font-style:normal;font-stretch:normal;font-variant:normal;font-size:30px;text-anchor:start;text-align:start;writing-mode:lr;line-height:125%;">당월 청구 주기의</tspan>
  </text>
  <text
     style="font-weight:normal;font-size:30px;font-family:HelveticaNeue, 'Helvetica Neue';fill:#1a1314;fill-rule:evenodd;stroke:none;stroke-width:1"
     font-weight="normal"
     font-size="30"
     id="IBM-Cloud-usage-for"
     x="80"
     y="66"
     sodipodi:linespacing="125%">
    <tspan
       id="tspan121"
       y="333"
       x="567.38501">IBM Cloud <tspan
   style="-inkscape-font-specification:'Gulim, Normal';font-family:Gulim;font-weight:normal;font-style:normal;font-stretch:normal;font-variant:normal;font-size:30px;text-anchor:start;text-align:start;writing-mode:lr;line-height:125%"
   id="tspan4485">사용에 대해</tspan>
</tspan>
  </text>
  <text
     style="font-weight:normal;font-size:30px;font-family:Gulim;fill:#1a1314;fill-rule:evenodd;stroke:none;stroke-width:1;-inkscape-font-specification:'Gulim, Normal';font-style:normal;font-stretch:normal;font-variant:normal;text-anchor:start;text-align:start;writing-mode:lr;line-height:125%;"
     font-weight="normal"
     font-size="30"
     id="month’s-billing-cycle."
     x="-6"
     y="66"
     sodipodi:linespacing="125%">
    <tspan
       id="tspan124"
       y="365"
       x="538.03998"
       style="-inkscape-font-specification:'Gulim, Normal';font-family:Gulim;font-weight:normal;font-style:normal;font-stretch:normal;font-variant:normal;font-size:30px;text-anchor:start;text-align:start;writing-mode:lr;line-height:125%;">별도의 청구를 받게 됩니다.</tspan>
  </text>
  <text
     style="font-weight:normal;font-size:30px;font-family:Gulim;fill:#3c3232;fill-rule:evenodd;stroke:none;stroke-width:1;-inkscape-font-specification:'Gulim, Normal';font-style:normal;font-stretch:normal;font-variant:normal;text-anchor:start;text-align:start;writing-mode:lr;line-height:125%;"
     font-weight="normal"
     font-size="30"
     id="You-might-receive-a-separate-bill"
     x="40"
     y="66"
     sodipodi:linespacing="125%">
    <tspan
       id="tspan127"
       y="705"
       x="782.77002"
       style="-inkscape-font-specification:'Gulim, Normal';font-family:Gulim;font-weight:normal;font-style:normal;font-stretch:normal;font-variant:normal;font-size:30px;text-anchor:start;text-align:start;writing-mode:lr;line-height:125%;">계정이 연결된 시점에 따라,</tspan>
  </text>
  <text
     style="font-weight:normal;font-size:30px;font-family:Gulim;fill:#3c3232;fill-rule:evenodd;stroke:none;stroke-width:1;-inkscape-font-specification:'Gulim, Normal';font-style:normal;font-stretch:normal;font-variant:normal;text-anchor:start;text-align:start;writing-mode:lr;line-height:125%;"
     font-weight="normal"
     font-size="30"
     id="for-Infrastructure-u"
     x="114"
     y="66"
     sodipodi:linespacing="125%">
    <tspan
       id="tspan130"
       y="737"
       x="842.92999"
       style="-inkscape-font-specification:'Gulim, Normal';font-family:Gulim;font-weight:normal;font-style:normal;font-stretch:normal;font-variant:normal;font-size:30px;text-anchor:start;text-align:start;writing-mode:lr;line-height:125%;">당월 청구 주기의</tspan>
  </text>
  <text
     style="font-weight:normal;font-size:30px;font-family:Gulim;fill:#3c3232;fill-rule:evenodd;stroke:none;stroke-width:1;-inkscape-font-specification:'Gulim, Normal';font-style:normal;font-stretch:normal;font-variant:normal;text-anchor:start;text-align:start;writing-mode:lr;line-height:125%;"
     font-weight="normal"
     font-size="30"
     id="billing-cycle,-depending-on-when-you"
     x="68"
     y="66"
     sodipodi:linespacing="125%">
    <tspan
       id="tspan133"
       y="769"
       x="779"
       style="-inkscape-font-specification:'Gulim, Normal';font-family:Gulim;font-weight:normal;font-style:normal;font-stretch:normal;font-variant:normal;font-size:30px;text-anchor:start;text-align:start;writing-mode:lr;line-height:125%;">인프라 사용에 대해 별도의</tspan>
  </text>
  <text
     style="font-weight:normal;font-size:30px;font-family:Gulim;fill:#3c3232;fill-rule:evenodd;stroke:none;stroke-width:1;-inkscape-font-specification:'Gulim, Normal';font-style:normal;font-stretch:normal;font-variant:normal;text-anchor:start;text-align:start;writing-mode:lr;line-height:125%;"
     font-weight="normal"
     font-size="30"
     id="linked-your-accounts."
     x="-22"
     y="66"
     sodipodi:linespacing="125%">
    <tspan
       id="tspan136"
       y="801"
       x="795.72998"
       style="-inkscape-font-specification:'Gulim, Normal';font-family:Gulim;font-weight:normal;font-style:normal;font-stretch:normal;font-variant:normal;font-size:30px;text-anchor:start;text-align:start;writing-mode:lr;line-height:125%;">청구를 받을 수 있습니다.</tspan>
  </text>
  <g
     style="fill:none;fill-rule:evenodd;stroke:none;stroke-width:1"
     transform="translate(640,391)"
     id="Group-2">
    <path
       style="stroke:#5596e6;stroke-dasharray:15, 5"
       inkscape:connector-curvature="0"
       transform="matrix(1,0,0,-1,0,1)"
       id="path139"
       d="M 2.6203008,0 220.51504,0" />
    <path
       style="stroke:#af6ee8"
       inkscape:connector-curvature="0"
       transform="matrix(1,0,0,-1,0,41)"
       id="path141"
       d="M 0,0 0,41" />
    <path
       style="stroke:#af6ee8"
       inkscape:connector-curvature="0"
       transform="matrix(1,0,0,-1,0,41)"
       id="Line-Copy"
       d="m 226,0 0,41" />
  </g>
  <g
     style="fill:none;fill-rule:evenodd;stroke:none;stroke-width:1"
     transform="matrix(-1,0,0,-1,1108,475)"
     id="g144">
    <path
       style="stroke:#ff2f2f;stroke-dasharray:15, 5"
       inkscape:connector-curvature="0"
       transform="matrix(1,0,0,-1,0,1)"
       id="path146"
       d="M 2.0582707,0 198.16353,0" />
    <path
       style="stroke:#af6ee8"
       inkscape:connector-curvature="0"
       transform="matrix(1,0,0,-1,0,41.774194)"
       id="path148"
       d="M 0,0.7741935 0,41" />
    <path
       style="stroke:#af6ee8"
       inkscape:connector-curvature="0"
       transform="matrix(1,0,0,-1,0,41.774194)"
       id="path150"
       d="M 204,0.7741935 204,41" />
  </g>
</svg>
